<svg width="978" height="314" viewBox="0 0 978 314" fill="none" xmlns="http://www.w3.org/2000/svg">
<path d="M329.296 123.208H334.16V136.648H334.416C334.928 134.6 335.824 132.68 337.104 130.888C338.384 129.011 339.92 127.389 341.712 126.024C343.589 124.659 345.637 123.592 347.856 122.824C350.16 122.056 352.549 121.672 355.024 121.672C358.181 121.672 360.912 122.099 363.216 122.952C365.52 123.72 367.483 124.787 369.104 126.152C370.725 127.432 372.005 128.925 372.944 130.632C373.883 132.253 374.523 133.917 374.864 135.624H375.12C377.083 131.016 379.685 127.56 382.928 125.256C386.256 122.867 390.608 121.672 395.984 121.672C398.971 121.672 401.701 122.141 404.176 123.08C406.736 123.933 408.912 125.299 410.704 127.176C412.581 128.968 414.032 131.272 415.056 134.088C416.08 136.904 416.592 140.232 416.592 144.072V189H411.728V143.944C411.728 139.763 411.088 136.477 409.808 134.088C408.528 131.699 406.992 129.907 405.2 128.712C403.493 127.432 401.744 126.664 399.952 126.408C398.245 126.067 396.923 125.896 395.984 125.896C392.997 125.896 390.224 126.408 387.664 127.432C385.189 128.456 383.013 129.992 381.136 132.04C379.344 134.088 377.936 136.648 376.912 139.72C375.888 142.707 375.376 146.163 375.376 150.088V189H370.512V143.944C370.512 139.848 369.872 136.605 368.592 134.216C367.397 131.741 365.947 129.907 364.24 128.712C362.619 127.517 360.912 126.749 359.12 126.408C357.413 126.067 356.048 125.896 355.024 125.896C352.72 125.896 350.331 126.365 347.856 127.304C345.381 128.243 343.12 129.693 341.072 131.656C339.024 133.619 337.36 136.136 336.08 139.208C334.8 142.28 334.16 145.907 334.16 150.088V189H329.296V123.208ZM437.059 97.608V189H432.195V97.608H437.059ZM470.463 154.44L446.399 123.208H453.183L473.791 150.728L494.527 123.208H500.799L476.991 154.44L502.975 189H496.319L473.791 158.152L450.751 189H444.607L470.463 154.44Z" fill="black"/>
<g style="mix-blend-mode:plus-darker">
<path d="M617.28 181.368C617.28 192.205 614.805 200.312 609.856 205.688C604.907 211.064 597.141 213.752 586.56 213.752C583.488 213.752 580.331 213.411 577.088 212.728C573.931 212.045 571.029 210.936 568.384 209.4C565.824 207.864 563.691 205.859 561.984 203.384C560.277 200.909 559.339 197.88 559.168 194.296H570.048C570.133 196.259 570.731 197.923 571.84 199.288C573.035 200.653 574.443 201.763 576.064 202.616C577.771 203.469 579.605 204.067 581.568 204.408C583.531 204.835 585.408 205.048 587.2 205.048C590.784 205.048 593.813 204.408 596.288 203.128C598.763 201.933 600.811 200.227 602.432 198.008C604.053 195.875 605.205 193.272 605.888 190.2C606.656 187.128 607.04 183.757 607.04 180.088V175.736H606.784C604.907 179.832 602.048 182.861 598.208 184.824C594.453 186.701 590.443 187.64 586.176 187.64C581.227 187.64 576.917 186.744 573.248 184.952C569.579 183.16 566.507 180.771 564.032 177.784C561.557 174.712 559.68 171.171 558.4 167.16C557.205 163.064 556.608 158.755 556.608 154.232C556.608 150.307 557.12 146.296 558.144 142.2C559.168 138.019 560.875 134.264 563.264 130.936C565.653 127.523 568.811 124.749 572.736 122.616C576.661 120.397 581.483 119.288 587.2 119.288C591.381 119.288 595.221 120.227 598.72 122.104C602.219 123.896 604.949 126.627 606.912 130.296H607.04V120.824H617.28V181.368ZM586.816 178.168C590.4 178.168 593.429 177.443 595.904 175.992C598.464 174.456 600.512 172.493 602.048 170.104C603.584 167.629 604.693 164.856 605.376 161.784C606.144 158.712 606.528 155.64 606.528 152.568C606.528 149.667 606.187 146.808 605.504 143.992C604.821 141.176 603.712 138.659 602.176 136.44C600.725 134.136 598.805 132.301 596.416 130.936C594.027 129.571 591.125 128.888 587.712 128.888C584.213 128.888 581.227 129.571 578.752 130.936C576.277 132.216 574.229 133.965 572.608 136.184C571.072 138.403 569.92 140.963 569.152 143.864C568.469 146.765 568.128 149.795 568.128 152.952C568.128 155.939 568.427 158.925 569.024 161.912C569.621 164.899 570.645 167.629 572.096 170.104C573.547 172.493 575.467 174.456 577.856 175.992C580.245 177.443 583.232 178.168 586.816 178.168ZM633.308 120.824H643.548V134.776H643.804C646.449 129.4 649.692 125.432 653.532 122.872C657.372 120.312 662.236 119.117 668.124 119.288V130.808C663.772 130.808 660.06 131.405 656.988 132.6C653.916 133.795 651.441 135.544 649.564 137.848C647.687 140.152 646.321 142.968 645.468 146.296C644.615 149.539 644.188 153.293 644.188 157.56V187H633.308V120.824ZM734.941 186.744C733.064 187.853 730.461 188.408 727.133 188.408C724.317 188.408 722.056 187.64 720.349 186.104C718.728 184.483 717.917 181.88 717.917 178.296C714.93 181.88 711.432 184.483 707.421 186.104C703.496 187.64 699.229 188.408 694.621 188.408C691.634 188.408 688.776 188.067 686.045 187.384C683.4 186.701 681.096 185.635 679.133 184.184C677.17 182.733 675.592 180.856 674.397 178.552C673.288 176.163 672.733 173.304 672.733 169.976C672.733 166.221 673.373 163.149 674.653 160.76C675.933 158.371 677.597 156.451 679.645 155C681.778 153.464 684.168 152.312 686.813 151.544C689.544 150.776 692.317 150.136 695.133 149.624C698.12 149.027 700.936 148.6 703.581 148.344C706.312 148.003 708.701 147.576 710.749 147.064C712.797 146.467 714.418 145.656 715.613 144.632C716.808 143.523 717.405 141.944 717.405 139.896C717.405 137.507 716.936 135.587 715.997 134.136C715.144 132.685 713.992 131.576 712.541 130.808C711.176 130.04 709.597 129.528 707.805 129.272C706.098 129.016 704.392 128.888 702.685 128.888C698.077 128.888 694.237 129.784 691.165 131.576C688.093 133.283 686.429 136.568 686.173 141.432H675.293C675.464 137.336 676.317 133.88 677.853 131.064C679.389 128.248 681.437 125.987 683.997 124.28C686.557 122.488 689.458 121.208 692.701 120.44C696.029 119.672 699.57 119.288 703.325 119.288C706.312 119.288 709.256 119.501 712.157 119.928C715.144 120.355 717.832 121.251 720.221 122.616C722.61 123.896 724.53 125.731 725.981 128.12C727.432 130.509 728.157 133.624 728.157 137.464V171.512C728.157 174.072 728.285 175.949 728.541 177.144C728.882 178.339 729.906 178.936 731.613 178.936C732.552 178.936 733.661 178.723 734.941 178.296V186.744ZM717.277 152.824C715.912 153.848 714.12 154.616 711.901 155.128C709.682 155.555 707.336 155.939 704.861 156.28C702.472 156.536 700.04 156.877 697.565 157.304C695.09 157.645 692.872 158.243 690.909 159.096C688.946 159.949 687.325 161.187 686.045 162.808C684.85 164.344 684.253 166.477 684.253 169.208C684.253 171 684.594 172.536 685.277 173.816C686.045 175.011 686.984 175.992 688.093 176.76C689.288 177.528 690.653 178.083 692.189 178.424C693.725 178.765 695.346 178.936 697.053 178.936C700.637 178.936 703.709 178.467 706.269 177.528C708.829 176.504 710.92 175.267 712.541 173.816C714.162 172.28 715.357 170.659 716.125 168.952C716.893 167.16 717.277 165.496 717.277 163.96V152.824ZM745.451 120.824H756.331V129.784H756.587C758.379 126.115 761.195 123.469 765.035 121.848C768.875 120.141 773.099 119.288 777.707 119.288C782.827 119.288 787.264 120.227 791.019 122.104C794.859 123.981 798.016 126.541 800.491 129.784C803.051 132.941 804.971 136.611 806.251 140.792C807.531 144.973 808.171 149.411 808.171 154.104C808.171 158.797 807.531 163.235 806.251 167.416C805.056 171.597 803.179 175.267 800.619 178.424C798.144 181.496 794.987 183.928 791.147 185.72C787.392 187.512 782.998 188.408 777.963 188.408C776.342 188.408 774.507 188.237 772.459 187.896C770.496 187.555 768.534 187 766.571 186.232C764.608 185.464 762.731 184.44 760.939 183.16C759.232 181.795 757.782 180.131 756.587 178.168H756.331V212.216H745.451V120.824ZM796.651 153.336C796.651 150.264 796.224 147.277 795.371 144.376C794.603 141.389 793.366 138.744 791.659 136.44C790.038 134.136 787.904 132.301 785.259 130.936C782.699 129.571 779.67 128.888 776.171 128.888C772.502 128.888 769.387 129.613 766.827 131.064C764.267 132.515 762.176 134.435 760.555 136.824C758.934 139.128 757.739 141.773 756.971 144.76C756.288 147.747 755.947 150.776 755.947 153.848C755.947 157.091 756.331 160.248 757.099 163.32C757.867 166.307 759.062 168.952 760.683 171.256C762.39 173.56 764.566 175.437 767.211 176.888C769.856 178.253 773.056 178.936 776.811 178.936C780.566 178.936 783.68 178.211 786.155 176.76C788.715 175.309 790.763 173.389 792.299 171C793.835 168.611 794.944 165.88 795.627 162.808C796.31 159.736 796.651 156.579 796.651 153.336ZM820.942 95.608H831.822V130.552H832.078C832.931 128.504 834.126 126.797 835.662 125.432C837.198 123.981 838.905 122.829 840.782 121.976C842.745 121.037 844.75 120.355 846.798 119.928C848.931 119.501 850.979 119.288 852.942 119.288C857.294 119.288 860.921 119.885 863.822 121.08C866.723 122.275 869.07 123.939 870.862 126.072C872.654 128.205 873.891 130.765 874.574 133.752C875.342 136.653 875.726 139.896 875.726 143.48V187H864.846V142.2C864.846 138.104 863.651 134.861 861.262 132.472C858.873 130.083 855.587 128.888 851.406 128.888C848.078 128.888 845.177 129.4 842.702 130.424C840.313 131.448 838.307 132.899 836.686 134.776C835.065 136.653 833.827 138.872 832.974 141.432C832.206 143.907 831.822 146.637 831.822 149.624V187H820.942V95.608ZM898.723 166.136C898.808 168.525 899.363 170.573 900.387 172.28C901.411 173.901 902.734 175.224 904.355 176.248C906.062 177.187 907.939 177.869 909.987 178.296C912.12 178.723 914.296 178.936 916.515 178.936C918.222 178.936 920.014 178.808 921.891 178.552C923.768 178.296 925.475 177.827 927.011 177.144C928.632 176.461 929.955 175.48 930.979 174.2C932.003 172.835 932.515 171.128 932.515 169.08C932.515 166.264 931.448 164.131 929.315 162.68C927.182 161.229 924.494 160.077 921.251 159.224C918.094 158.285 914.638 157.475 910.883 156.792C907.128 156.024 903.63 155 900.387 153.72C897.23 152.355 894.584 150.477 892.451 148.088C890.318 145.699 889.251 142.371 889.251 138.104C889.251 134.776 889.976 131.917 891.427 129.528C892.963 127.139 894.883 125.219 897.187 123.768C899.576 122.232 902.222 121.123 905.123 120.44C908.11 119.672 911.054 119.288 913.955 119.288C917.71 119.288 921.166 119.629 924.323 120.312C927.48 120.909 930.254 122.019 932.643 123.64C935.118 125.176 937.08 127.309 938.531 130.04C939.982 132.685 940.835 136.013 941.091 140.024H930.211C930.04 137.891 929.486 136.141 928.547 134.776C927.608 133.325 926.414 132.173 924.963 131.32C923.512 130.467 921.891 129.869 920.099 129.528C918.392 129.101 916.643 128.888 914.851 128.888C913.23 128.888 911.566 129.016 909.859 129.272C908.238 129.528 906.744 129.997 905.379 130.68C904.014 131.277 902.904 132.131 902.051 133.24C901.198 134.264 900.771 135.629 900.771 137.336C900.771 139.213 901.411 140.792 902.691 142.072C904.056 143.267 905.763 144.291 907.811 145.144C909.859 145.912 912.163 146.595 914.723 147.192C917.283 147.704 919.843 148.259 922.403 148.856C925.134 149.453 927.779 150.179 930.339 151.032C932.984 151.885 935.288 153.037 937.251 154.488C939.299 155.853 940.92 157.603 942.115 159.736C943.395 161.869 944.035 164.515 944.035 167.672C944.035 171.683 943.182 175.011 941.475 177.656C939.854 180.301 937.678 182.435 934.947 184.056C932.302 185.677 929.272 186.787 925.859 187.384C922.531 188.067 919.203 188.408 915.875 188.408C912.206 188.408 908.707 188.024 905.379 187.256C902.051 186.488 899.107 185.251 896.547 183.544C893.987 181.752 891.939 179.448 890.403 176.632C888.867 173.731 888.014 170.232 887.843 166.136H898.723Z" fill="url(#paint0_linear_6_22)"/>
</g>
<path d="M510.832 151.752H538.224V156.616H510.832V151.752Z" fill="black"/>
<path d="M280 157C280 185.457 270.133 213.033 252.08 235.03C234.028 257.028 208.906 272.085 180.996 277.637C153.086 283.188 124.115 278.891 99.0182 265.476C73.9216 252.062 54.2527 230.361 43.3628 204.07C32.4729 177.78 31.0358 148.526 39.2963 121.295C47.5569 94.0636 65.004 70.5389 88.6649 54.7292C112.326 38.9195 140.736 31.803 169.056 34.5923C197.376 37.3815 223.852 49.9039 243.974 70.0259" stroke="black" stroke-width="4"/>
<path d="M32 185.5C47.7401 185.5 60.5 172.74 60.5 157C60.5 141.26 47.7401 128.5 32 128.5C16.2599 128.5 3.5 141.26 3.5 157C3.5 172.74 16.2599 185.5 32 185.5Z" fill="#7AB7CA" stroke="white" stroke-width="7"/>
<path d="M157 310.5C172.74 310.5 185.5 297.74 185.5 282C185.5 266.26 172.74 253.5 157 253.5C141.26 253.5 128.5 266.26 128.5 282C128.5 297.74 141.26 310.5 157 310.5Z" fill="#4E9EB8" stroke="white" stroke-width="7"/>
<path d="M282 185.5C297.74 185.5 310.5 172.74 310.5 157C310.5 141.26 297.74 128.5 282 128.5C266.26 128.5 253.5 141.26 253.5 157C253.5 172.74 266.26 185.5 282 185.5Z" fill="#2286A6" stroke="white" stroke-width="7"/>
<path d="M157 60.5C172.74 60.5 185.5 47.7401 185.5 32C185.5 16.2599 172.74 3.5 157 3.5C141.26 3.5 128.5 16.2599 128.5 32C128.5 47.7401 141.26 60.5 157 60.5Z" fill="#A7CFDB" stroke="white" stroke-width="7"/>
<path d="M88.7642 265.541C99.8942 254.411 99.8942 236.366 88.7642 225.236C77.6343 214.106 59.5891 214.106 48.4591 225.236C37.3292 236.366 37.3292 254.411 48.4591 265.541C59.5891 276.671 77.6343 276.671 88.7642 265.541Z" fill="#65ABC1" stroke="white" stroke-width="7"/>
<path d="M265.541 265.541C276.671 254.411 276.671 236.366 265.541 225.236C254.411 214.106 236.366 214.106 225.236 225.236C214.106 236.366 214.106 254.411 225.236 265.541C236.366 276.671 254.411 276.671 265.541 265.541Z" fill="#3893AF" stroke="white" stroke-width="7"/>
<path d="M88.7642 88.7642C99.8942 77.6343 99.8942 59.5891 88.7642 48.4591C77.6343 37.3292 59.5891 37.3292 48.4591 48.4591C37.3292 59.5891 37.3292 77.6343 48.4591 88.7642C59.5891 99.8941 77.6343 99.8941 88.7642 88.7642Z" fill="#90C2D2" stroke="white" stroke-width="7"/>
<path d="M265.541 88.7642C276.671 77.6343 276.671 59.5891 265.541 48.4591C254.411 37.3292 236.366 37.3292 225.236 48.4591C214.106 59.5891 214.106 77.6343 225.236 88.7642C236.366 99.8941 254.411 99.8941 265.541 88.7642Z" fill="#BCDAE4" stroke="white" stroke-width="7"/>
<path d="M177.153 177.153C188.282 166.023 188.282 147.977 177.153 136.847C166.023 125.718 147.977 125.718 136.847 136.847C125.718 147.977 125.718 166.023 136.847 177.153C147.977 188.282 166.023 188.282 177.153 177.153Z" fill="#D3E7ED" stroke="white" stroke-width="7"/>
<rect x="189" y="155" width="61" height="4" fill="black"/>
<defs>
<linearGradient id="paint0_linear_6_22" x1="552" y1="162" x2="936" y2="159.5" gradientUnits="userSpaceOnUse">
<stop stop-color="#2286A6"/>
<stop offset="1" stop-color="#BCDAE4"/>
</linearGradient>
</defs>
</svg>
