<svg width="978" height="300" viewBox="0 0 978 300" fill="none" xmlns="http://www.w3.org/2000/svg">
<path d="M329.296 116.208H334.16V129.648H334.416C334.928 127.6 335.824 125.68 337.104 123.888C338.384 122.011 339.92 120.389 341.712 119.024C343.589 117.659 345.637 116.592 347.856 115.824C350.16 115.056 352.549 114.672 355.024 114.672C358.181 114.672 360.912 115.099 363.216 115.952C365.52 116.72 367.483 117.787 369.104 119.152C370.725 120.432 372.005 121.925 372.944 123.632C373.883 125.253 374.523 126.917 374.864 128.624H375.12C377.083 124.016 379.685 120.56 382.928 118.256C386.256 115.867 390.608 114.672 395.984 114.672C398.971 114.672 401.701 115.141 404.176 116.08C406.736 116.933 408.912 118.299 410.704 120.176C412.581 121.968 414.032 124.272 415.056 127.088C416.08 129.904 416.592 133.232 416.592 137.072V182H411.728V136.944C411.728 132.763 411.088 129.477 409.808 127.088C408.528 124.699 406.992 122.907 405.2 121.712C403.493 120.432 401.744 119.664 399.952 119.408C398.245 119.067 396.923 118.896 395.984 118.896C392.997 118.896 390.224 119.408 387.664 120.432C385.189 121.456 383.013 122.992 381.136 125.04C379.344 127.088 377.936 129.648 376.912 132.72C375.888 135.707 375.376 139.163 375.376 143.088V182H370.512V136.944C370.512 132.848 369.872 129.605 368.592 127.216C367.397 124.741 365.947 122.907 364.24 121.712C362.619 120.517 360.912 119.749 359.12 119.408C357.413 119.067 356.048 118.896 355.024 118.896C352.72 118.896 350.331 119.365 347.856 120.304C345.381 121.243 343.12 122.693 341.072 124.656C339.024 126.619 337.36 129.136 336.08 132.208C334.8 135.28 334.16 138.907 334.16 143.088V182H329.296V116.208ZM437.059 90.608V182H432.195V90.608H437.059ZM470.463 147.44L446.399 116.208H453.183L473.791 143.728L494.527 116.208H500.799L476.991 147.44L502.975 182H496.319L473.791 151.152L450.751 182H444.607L470.463 147.44Z" fill="black"/>
<path d="M617.28 174.368C617.28 185.205 614.805 193.312 609.856 198.688C604.907 204.064 597.141 206.752 586.56 206.752C583.488 206.752 580.331 206.411 577.088 205.728C573.931 205.045 571.029 203.936 568.384 202.4C565.824 200.864 563.691 198.859 561.984 196.384C560.277 193.909 559.339 190.88 559.168 187.296H570.048C570.133 189.259 570.731 190.923 571.84 192.288C573.035 193.653 574.443 194.763 576.064 195.616C577.771 196.469 579.605 197.067 581.568 197.408C583.531 197.835 585.408 198.048 587.2 198.048C590.784 198.048 593.813 197.408 596.288 196.128C598.763 194.933 600.811 193.227 602.432 191.008C604.053 188.875 605.205 186.272 605.888 183.2C606.656 180.128 607.04 176.757 607.04 173.088V168.736H606.784C604.907 172.832 602.048 175.861 598.208 177.824C594.453 179.701 590.443 180.64 586.176 180.64C581.227 180.64 576.917 179.744 573.248 177.952C569.579 176.16 566.507 173.771 564.032 170.784C561.557 167.712 559.68 164.171 558.4 160.16C557.205 156.064 556.608 151.755 556.608 147.232C556.608 143.307 557.12 139.296 558.144 135.2C559.168 131.019 560.875 127.264 563.264 123.936C565.653 120.523 568.811 117.749 572.736 115.616C576.661 113.397 581.483 112.288 587.2 112.288C591.381 112.288 595.221 113.227 598.72 115.104C602.219 116.896 604.949 119.627 606.912 123.296H607.04V113.824H617.28V174.368ZM586.816 171.168C590.4 171.168 593.429 170.443 595.904 168.992C598.464 167.456 600.512 165.493 602.048 163.104C603.584 160.629 604.693 157.856 605.376 154.784C606.144 151.712 606.528 148.64 606.528 145.568C606.528 142.667 606.187 139.808 605.504 136.992C604.821 134.176 603.712 131.659 602.176 129.44C600.725 127.136 598.805 125.301 596.416 123.936C594.027 122.571 591.125 121.888 587.712 121.888C584.213 121.888 581.227 122.571 578.752 123.936C576.277 125.216 574.229 126.965 572.608 129.184C571.072 131.403 569.92 133.963 569.152 136.864C568.469 139.765 568.128 142.795 568.128 145.952C568.128 148.939 568.427 151.925 569.024 154.912C569.621 157.899 570.645 160.629 572.096 163.104C573.547 165.493 575.467 167.456 577.856 168.992C580.245 170.443 583.232 171.168 586.816 171.168ZM633.308 113.824H643.548V127.776H643.804C646.449 122.4 649.692 118.432 653.532 115.872C657.372 113.312 662.236 112.117 668.124 112.288V123.808C663.772 123.808 660.06 124.405 656.988 125.6C653.916 126.795 651.441 128.544 649.564 130.848C647.687 133.152 646.321 135.968 645.468 139.296C644.615 142.539 644.188 146.293 644.188 150.56V180H633.308V113.824ZM734.941 179.744C733.064 180.853 730.461 181.408 727.133 181.408C724.317 181.408 722.056 180.64 720.349 179.104C718.728 177.483 717.917 174.88 717.917 171.296C714.93 174.88 711.432 177.483 707.421 179.104C703.496 180.64 699.229 181.408 694.621 181.408C691.634 181.408 688.776 181.067 686.045 180.384C683.4 179.701 681.096 178.635 679.133 177.184C677.17 175.733 675.592 173.856 674.397 171.552C673.288 169.163 672.733 166.304 672.733 162.976C672.733 159.221 673.373 156.149 674.653 153.76C675.933 151.371 677.597 149.451 679.645 148C681.778 146.464 684.168 145.312 686.813 144.544C689.544 143.776 692.317 143.136 695.133 142.624C698.12 142.027 700.936 141.6 703.581 141.344C706.312 141.003 708.701 140.576 710.749 140.064C712.797 139.467 714.418 138.656 715.613 137.632C716.808 136.523 717.405 134.944 717.405 132.896C717.405 130.507 716.936 128.587 715.997 127.136C715.144 125.685 713.992 124.576 712.541 123.808C711.176 123.04 709.597 122.528 707.805 122.272C706.098 122.016 704.392 121.888 702.685 121.888C698.077 121.888 694.237 122.784 691.165 124.576C688.093 126.283 686.429 129.568 686.173 134.432H675.293C675.464 130.336 676.317 126.88 677.853 124.064C679.389 121.248 681.437 118.987 683.997 117.28C686.557 115.488 689.458 114.208 692.701 113.44C696.029 112.672 699.57 112.288 703.325 112.288C706.312 112.288 709.256 112.501 712.157 112.928C715.144 113.355 717.832 114.251 720.221 115.616C722.61 116.896 724.53 118.731 725.981 121.12C727.432 123.509 728.157 126.624 728.157 130.464V164.512C728.157 167.072 728.285 168.949 728.541 170.144C728.882 171.339 729.906 171.936 731.613 171.936C732.552 171.936 733.661 171.723 734.941 171.296V179.744ZM717.277 145.824C715.912 146.848 714.12 147.616 711.901 148.128C709.682 148.555 707.336 148.939 704.861 149.28C702.472 149.536 700.04 149.877 697.565 150.304C695.09 150.645 692.872 151.243 690.909 152.096C688.946 152.949 687.325 154.187 686.045 155.808C684.85 157.344 684.253 159.477 684.253 162.208C684.253 164 684.594 165.536 685.277 166.816C686.045 168.011 686.984 168.992 688.093 169.76C689.288 170.528 690.653 171.083 692.189 171.424C693.725 171.765 695.346 171.936 697.053 171.936C700.637 171.936 703.709 171.467 706.269 170.528C708.829 169.504 710.92 168.267 712.541 166.816C714.162 165.28 715.357 163.659 716.125 161.952C716.893 160.16 717.277 158.496 717.277 156.96V145.824ZM745.451 113.824H756.331V122.784H756.587C758.379 119.115 761.195 116.469 765.035 114.848C768.875 113.141 773.099 112.288 777.707 112.288C782.827 112.288 787.264 113.227 791.019 115.104C794.859 116.981 798.016 119.541 800.491 122.784C803.051 125.941 804.971 129.611 806.251 133.792C807.531 137.973 808.171 142.411 808.171 147.104C808.171 151.797 807.531 156.235 806.251 160.416C805.056 164.597 803.179 168.267 800.619 171.424C798.144 174.496 794.987 176.928 791.147 178.72C787.392 180.512 782.998 181.408 777.963 181.408C776.342 181.408 774.507 181.237 772.459 180.896C770.496 180.555 768.534 180 766.571 179.232C764.608 178.464 762.731 177.44 760.939 176.16C759.232 174.795 757.782 173.131 756.587 171.168H756.331V205.216H745.451V113.824ZM796.651 146.336C796.651 143.264 796.224 140.277 795.371 137.376C794.603 134.389 793.366 131.744 791.659 129.44C790.038 127.136 787.904 125.301 785.259 123.936C782.699 122.571 779.67 121.888 776.171 121.888C772.502 121.888 769.387 122.613 766.827 124.064C764.267 125.515 762.176 127.435 760.555 129.824C758.934 132.128 757.739 134.773 756.971 137.76C756.288 140.747 755.947 143.776 755.947 146.848C755.947 150.091 756.331 153.248 757.099 156.32C757.867 159.307 759.062 161.952 760.683 164.256C762.39 166.56 764.566 168.437 767.211 169.888C769.856 171.253 773.056 171.936 776.811 171.936C780.566 171.936 783.68 171.211 786.155 169.76C788.715 168.309 790.763 166.389 792.299 164C793.835 161.611 794.944 158.88 795.627 155.808C796.31 152.736 796.651 149.579 796.651 146.336ZM820.942 88.608H831.822V123.552H832.078C832.931 121.504 834.126 119.797 835.662 118.432C837.198 116.981 838.905 115.829 840.782 114.976C842.745 114.037 844.75 113.355 846.798 112.928C848.931 112.501 850.979 112.288 852.942 112.288C857.294 112.288 860.921 112.885 863.822 114.08C866.723 115.275 869.07 116.939 870.862 119.072C872.654 121.205 873.891 123.765 874.574 126.752C875.342 129.653 875.726 132.896 875.726 136.48V180H864.846V135.2C864.846 131.104 863.651 127.861 861.262 125.472C858.873 123.083 855.587 121.888 851.406 121.888C848.078 121.888 845.177 122.4 842.702 123.424C840.313 124.448 838.307 125.899 836.686 127.776C835.065 129.653 833.827 131.872 832.974 134.432C832.206 136.907 831.822 139.637 831.822 142.624V180H820.942V88.608ZM898.723 159.136C898.808 161.525 899.363 163.573 900.387 165.28C901.411 166.901 902.734 168.224 904.355 169.248C906.062 170.187 907.939 170.869 909.987 171.296C912.12 171.723 914.296 171.936 916.515 171.936C918.222 171.936 920.014 171.808 921.891 171.552C923.768 171.296 925.475 170.827 927.011 170.144C928.632 169.461 929.955 168.48 930.979 167.2C932.003 165.835 932.515 164.128 932.515 162.08C932.515 159.264 931.448 157.131 929.315 155.68C927.182 154.229 924.494 153.077 921.251 152.224C918.094 151.285 914.638 150.475 910.883 149.792C907.128 149.024 903.63 148 900.387 146.72C897.23 145.355 894.584 143.477 892.451 141.088C890.318 138.699 889.251 135.371 889.251 131.104C889.251 127.776 889.976 124.917 891.427 122.528C892.963 120.139 894.883 118.219 897.187 116.768C899.576 115.232 902.222 114.123 905.123 113.44C908.11 112.672 911.054 112.288 913.955 112.288C917.71 112.288 921.166 112.629 924.323 113.312C927.48 113.909 930.254 115.019 932.643 116.64C935.118 118.176 937.08 120.309 938.531 123.04C939.982 125.685 940.835 129.013 941.091 133.024H930.211C930.04 130.891 929.486 129.141 928.547 127.776C927.608 126.325 926.414 125.173 924.963 124.32C923.512 123.467 921.891 122.869 920.099 122.528C918.392 122.101 916.643 121.888 914.851 121.888C913.23 121.888 911.566 122.016 909.859 122.272C908.238 122.528 906.744 122.997 905.379 123.68C904.014 124.277 902.904 125.131 902.051 126.24C901.198 127.264 900.771 128.629 900.771 130.336C900.771 132.213 901.411 133.792 902.691 135.072C904.056 136.267 905.763 137.291 907.811 138.144C909.859 138.912 912.163 139.595 914.723 140.192C917.283 140.704 919.843 141.259 922.403 141.856C925.134 142.453 927.779 143.179 930.339 144.032C932.984 144.885 935.288 146.037 937.251 147.488C939.299 148.853 940.92 150.603 942.115 152.736C943.395 154.869 944.035 157.515 944.035 160.672C944.035 164.683 943.182 168.011 941.475 170.656C939.854 173.301 937.678 175.435 934.947 177.056C932.302 178.677 929.272 179.787 925.859 180.384C922.531 181.067 919.203 181.408 915.875 181.408C912.206 181.408 908.707 181.024 905.379 180.256C902.051 179.488 899.107 178.251 896.547 176.544C893.987 174.752 891.939 172.448 890.403 169.632C888.867 166.731 888.014 163.232 887.843 159.136H898.723Z" fill="url(#paint0_linear_13_61)"/>
<path d="M510.832 144.752H538.224V149.616H510.832V144.752Z" fill="black"/>
<path d="M268.597 181.616C265.722 192.07 261.477 202.098 255.973 211.44" stroke="black" stroke-width="4"/>
<path d="M211.256 255.662C201.854 261.061 191.779 265.194 181.294 267.952" stroke="black" stroke-width="4"/>
<path d="M118.782 267.973C108.295 265.221 98.2179 261.094 88.8125 255.701" stroke="black" stroke-width="4"/>
<path d="M43.9157 211.251C38.4285 201.899 34.2017 191.864 31.3453 181.405" stroke="black" stroke-width="4"/>
<path d="M30.9535 118.066C33.6803 107.572 37.7827 97.4848 43.1538 88.0665" stroke="black" stroke-width="4"/>
<path d="M87.7553 42.9123C97.1067 37.4256 107.142 33.1994 117.602 30.3435" stroke="black" stroke-width="4"/>
<path d="M182.547 30.3844C193.003 33.2533 203.034 37.4922 212.378 42.9907" stroke="black" stroke-width="4"/>
<path d="M256.934 88.2203C262.291 97.6463 266.379 107.739 269.091 118.237" stroke="black" stroke-width="4"/>
<path d="M50 150C50 163.807 38.8071 175 25 175C11.1929 175 0 163.807 0 150C0 136.193 11.1929 125 25 125C38.8071 125 50 136.193 50 150Z" fill="#7AB7CA"/>
<path d="M50 150C50 163.807 38.8071 175 25 175C11.1929 175 0 163.807 0 150C0 136.193 11.1929 125 25 125C38.8071 125 50 136.193 50 150Z" stroke="white"/>
<path d="M175 275C175 288.807 163.807 300 150 300C136.193 300 125 288.807 125 275C125 261.193 136.193 250 150 250C163.807 250 175 261.193 175 275Z" fill="#4E9EB8"/>
<path d="M175 275C175 288.807 163.807 300 150 300C136.193 300 125 288.807 125 275C125 261.193 136.193 250 150 250C163.807 250 175 261.193 175 275Z" stroke="white"/>
<path d="M300 150C300 163.807 288.807 175 275 175C261.193 175 250 163.807 250 150C250 136.193 261.193 125 275 125C288.807 125 300 136.193 300 150Z" fill="#2286A6"/>
<path d="M300 150C300 163.807 288.807 175 275 175C261.193 175 250 163.807 250 150C250 136.193 261.193 125 275 125C288.807 125 300 136.193 300 150Z" stroke="white"/>
<path d="M175 25C175 38.8071 163.807 50 150 50C136.193 50 125 38.8071 125 25C125 11.1929 136.193 0 150 0C163.807 0 175 11.1929 175 25Z" fill="#A7CFDB"/>
<path d="M175 25C175 38.8071 163.807 50 150 50C136.193 50 125 38.8071 125 25C125 11.1929 136.193 0 150 0C163.807 0 175 11.1929 175 25Z" stroke="white"/>
<path d="M79.2894 220.711C89.0525 230.474 89.0525 246.303 79.2894 256.066C69.5262 265.829 53.6971 265.829 43.934 256.066C34.1709 246.303 34.1709 230.474 43.934 220.711C53.6971 210.948 69.5262 210.948 79.2894 220.711Z" fill="#65ABC1"/>
<path d="M79.2894 220.711C89.0525 230.474 89.0525 246.303 79.2894 256.066C69.5262 265.829 53.6971 265.829 43.934 256.066C34.1709 246.303 34.1709 230.474 43.934 220.711C53.6971 210.948 69.5262 210.948 79.2894 220.711Z" stroke="white"/>
<path d="M256.066 220.711C265.829 230.474 265.829 246.303 256.066 256.066C246.303 265.829 230.474 265.829 220.711 256.066C210.948 246.303 210.948 230.474 220.711 220.711C230.474 210.948 246.303 210.948 256.066 220.711Z" fill="#3893AF"/>
<path d="M256.066 220.711C265.829 230.474 265.829 246.303 256.066 256.066C246.303 265.829 230.474 265.829 220.711 256.066C210.948 246.303 210.948 230.474 220.711 220.711C230.474 210.948 246.303 210.948 256.066 220.711Z" stroke="white"/>
<path d="M79.2894 43.934C89.0525 53.6971 89.0525 69.5263 79.2894 79.2894C69.5262 89.0525 53.6971 89.0525 43.934 79.2894C34.1709 69.5263 34.1709 53.6971 43.934 43.934C53.6971 34.1709 69.5262 34.1709 79.2894 43.934Z" fill="#90C2D2"/>
<path d="M79.2894 43.934C89.0525 53.6971 89.0525 69.5263 79.2894 79.2894C69.5262 89.0525 53.6971 89.0525 43.934 79.2894C34.1709 69.5263 34.1709 53.6971 43.934 43.934C53.6971 34.1709 69.5262 34.1709 79.2894 43.934Z" stroke="white"/>
<path d="M256.066 43.934C265.829 53.6971 265.829 69.5263 256.066 79.2894C246.303 89.0525 230.474 89.0525 220.711 79.2894C210.948 69.5263 210.948 53.6971 220.711 43.934C230.474 34.1709 246.303 34.1709 256.066 43.934Z" fill="#BCDAE4"/>
<path d="M256.066 43.934C265.829 53.6971 265.829 69.5263 256.066 79.2894C246.303 89.0525 230.474 89.0525 220.711 79.2894C210.948 69.5263 210.948 53.6971 220.711 43.934C230.474 34.1709 246.303 34.1709 256.066 43.934Z" stroke="white"/>
<defs>
<linearGradient id="paint0_linear_13_61" x1="552" y1="155" x2="936" y2="152.5" gradientUnits="userSpaceOnUse">
<stop stop-color="#2286A6"/>
<stop offset="1" stop-color="#BCDAE4"/>
</linearGradient>
</defs>
</svg>
